<svg xmlns="http://www.w3.org/2000/svg" viewBox="0 0 100 100" preserveAspectRatio="xMidYMid" width="236" height="236" style="shape-rendering: auto; display: block; background: transparent;" xmlns:xlink="http://www.w3.org/1999/xlink"><g><g transform="rotate(0 50 50)">
  <rect fill="#02df04" height="5" width="2" ry="0" rx="0" y="17.5" x="49">
    <animate repeatCount="indefinite" begin="-0.9504950495049505s" dur="0.9900990099009901s" keyTimes="0;1" values="1;0" attributeName="opacity"></animate>
  </rect>
</g><g transform="rotate(14.4 50 50)">
  <rect fill="#02df04" height="5" width="2" ry="0" rx="0" y="17.5" x="49">
    <animate repeatCount="indefinite" begin="-0.9108910891089109s" dur="0.9900990099009901s" keyTimes="0;1" values="1;0" attributeName="opacity"></animate>
  </rect>
</g><g transform="rotate(28.8 50 50)">
  <rect fill="#02df04" height="5" width="2" ry="0" rx="0" y="17.5" x="49">
    <animate repeatCount="indefinite" begin="-0.8712871287128713s" dur="0.9900990099009901s" keyTimes="0;1" values="1;0" attributeName="opacity"></animate>
  </rect>
</g><g transform="rotate(43.2 50 50)">
  <rect fill="#02df04" height="5" width="2" ry="0" rx="0" y="17.5" x="49">
    <animate repeatCount="indefinite" begin="-0.8316831683168316s" dur="0.9900990099009901s" keyTimes="0;1" values="1;0" attributeName="opacity"></animate>
  </rect>
</g><g transform="rotate(57.6 50 50)">
  <rect fill="#02df04" height="5" width="2" ry="0" rx="0" y="17.5" x="49">
    <animate repeatCount="indefinite" begin="-0.7920792079207921s" dur="0.9900990099009901s" keyTimes="0;1" values="1;0" attributeName="opacity"></animate>
  </rect>
</g><g transform="rotate(72 50 50)">
  <rect fill="#02df04" height="5" width="2" ry="0" rx="0" y="17.5" x="49">
    <animate repeatCount="indefinite" begin="-0.7524752475247525s" dur="0.9900990099009901s" keyTimes="0;1" values="1;0" attributeName="opacity"></animate>
  </rect>
</g><g transform="rotate(86.4 50 50)">
  <rect fill="#02df04" height="5" width="2" ry="0" rx="0" y="17.5" x="49">
    <animate repeatCount="indefinite" begin="-0.7128712871287128s" dur="0.9900990099009901s" keyTimes="0;1" values="1;0" attributeName="opacity"></animate>
  </rect>
</g><g transform="rotate(100.8 50 50)">
  <rect fill="#02df04" height="5" width="2" ry="0" rx="0" y="17.5" x="49">
    <animate repeatCount="indefinite" begin="-0.6732673267326733s" dur="0.9900990099009901s" keyTimes="0;1" values="1;0" attributeName="opacity"></animate>
  </rect>
</g><g transform="rotate(115.2 50 50)">
  <rect fill="#02df04" height="5" width="2" ry="0" rx="0" y="17.5" x="49">
    <animate repeatCount="indefinite" begin="-0.6336633663366337s" dur="0.9900990099009901s" keyTimes="0;1" values="1;0" attributeName="opacity"></animate>
  </rect>
</g><g transform="rotate(129.6 50 50)">
  <rect fill="#02df04" height="5" width="2" ry="0" rx="0" y="17.5" x="49">
    <animate repeatCount="indefinite" begin="-0.594059405940594s" dur="0.9900990099009901s" keyTimes="0;1" values="1;0" attributeName="opacity"></animate>
  </rect>
</g><g transform="rotate(144 50 50)">
  <rect fill="#02df04" height="5" width="2" ry="0" rx="0" y="17.5" x="49">
    <animate repeatCount="indefinite" begin="-0.5544554455445545s" dur="0.9900990099009901s" keyTimes="0;1" values="1;0" attributeName="opacity"></animate>
  </rect>
</g><g transform="rotate(158.4 50 50)">
  <rect fill="#02df04" height="5" width="2" ry="0" rx="0" y="17.5" x="49">
    <animate repeatCount="indefinite" begin="-0.5148514851485149s" dur="0.9900990099009901s" keyTimes="0;1" values="1;0" attributeName="opacity"></animate>
  </rect>
</g><g transform="rotate(172.8 50 50)">
  <rect fill="#02df04" height="5" width="2" ry="0" rx="0" y="17.5" x="49">
    <animate repeatCount="indefinite" begin="-0.4752475247524752s" dur="0.9900990099009901s" keyTimes="0;1" values="1;0" attributeName="opacity"></animate>
  </rect>
</g><g transform="rotate(187.2 50 50)">
  <rect fill="#02df04" height="5" width="2" ry="0" rx="0" y="17.5" x="49">
    <animate repeatCount="indefinite" begin="-0.43564356435643564s" dur="0.9900990099009901s" keyTimes="0;1" values="1;0" attributeName="opacity"></animate>
  </rect>
</g><g transform="rotate(201.6 50 50)">
  <rect fill="#02df04" height="5" width="2" ry="0" rx="0" y="17.5" x="49">
    <animate repeatCount="indefinite" begin="-0.39603960396039606s" dur="0.9900990099009901s" keyTimes="0;1" values="1;0" attributeName="opacity"></animate>
  </rect>
</g><g transform="rotate(216 50 50)">
  <rect fill="#02df04" height="5" width="2" ry="0" rx="0" y="17.5" x="49">
    <animate repeatCount="indefinite" begin="-0.3564356435643564s" dur="0.9900990099009901s" keyTimes="0;1" values="1;0" attributeName="opacity"></animate>
  </rect>
</g><g transform="rotate(230.4 50 50)">
  <rect fill="#02df04" height="5" width="2" ry="0" rx="0" y="17.5" x="49">
    <animate repeatCount="indefinite" begin="-0.31683168316831684s" dur="0.9900990099009901s" keyTimes="0;1" values="1;0" attributeName="opacity"></animate>
  </rect>
</g><g transform="rotate(244.8 50 50)">
  <rect fill="#02df04" height="5" width="2" ry="0" rx="0" y="17.5" x="49">
    <animate repeatCount="indefinite" begin="-0.27722772277227725s" dur="0.9900990099009901s" keyTimes="0;1" values="1;0" attributeName="opacity"></animate>
  </rect>
</g><g transform="rotate(259.2 50 50)">
  <rect fill="#02df04" height="5" width="2" ry="0" rx="0" y="17.5" x="49">
    <animate repeatCount="indefinite" begin="-0.2376237623762376s" dur="0.9900990099009901s" keyTimes="0;1" values="1;0" attributeName="opacity"></animate>
  </rect>
</g><g transform="rotate(273.6 50 50)">
  <rect fill="#02df04" height="5" width="2" ry="0" rx="0" y="17.5" x="49">
    <animate repeatCount="indefinite" begin="-0.19801980198019803s" dur="0.9900990099009901s" keyTimes="0;1" values="1;0" attributeName="opacity"></animate>
  </rect>
</g><g transform="rotate(288 50 50)">
  <rect fill="#02df04" height="5" width="2" ry="0" rx="0" y="17.5" x="49">
    <animate repeatCount="indefinite" begin="-0.15841584158415842s" dur="0.9900990099009901s" keyTimes="0;1" values="1;0" attributeName="opacity"></animate>
  </rect>
</g><g transform="rotate(302.4 50 50)">
  <rect fill="#02df04" height="5" width="2" ry="0" rx="0" y="17.5" x="49">
    <animate repeatCount="indefinite" begin="-0.1188118811881188s" dur="0.9900990099009901s" keyTimes="0;1" values="1;0" attributeName="opacity"></animate>
  </rect>
</g><g transform="rotate(316.8 50 50)">
  <rect fill="#02df04" height="5" width="2" ry="0" rx="0" y="17.5" x="49">
    <animate repeatCount="indefinite" begin="-0.07920792079207921s" dur="0.9900990099009901s" keyTimes="0;1" values="1;0" attributeName="opacity"></animate>
  </rect>
</g><g transform="rotate(331.2 50 50)">
  <rect fill="#02df04" height="5" width="2" ry="0" rx="0" y="17.5" x="49">
    <animate repeatCount="indefinite" begin="-0.039603960396039604s" dur="0.9900990099009901s" keyTimes="0;1" values="1;0" attributeName="opacity"></animate>
  </rect>
</g><g transform="rotate(345.6 50 50)">
  <rect fill="#02df04" height="5" width="2" ry="0" rx="0" y="17.5" x="49">
    <animate repeatCount="indefinite" begin="0s" dur="0.9900990099009901s" keyTimes="0;1" values="1;0" attributeName="opacity"></animate>
  </rect>
</g><g></g></g><!-- [ldio] generated by https://loading.io --></svg>